<?xml version="1.0" encoding="utf-8"?>
<!-- Generator: Adobe Illustrator 17.1.0, SVG Export Plug-In . SVG Version: 6.00 Build 0)  -->
<!DOCTYPE svg PUBLIC "-//W3C//DTD SVG 1.1//EN" "http://www.w3.org/Graphics/SVG/1.1/DTD/svg11.dtd">
<svg version="1.1" id="Layer_1" xmlns="http://www.w3.org/2000/svg" xmlns:xlink="http://www.w3.org/1999/xlink" x="0px" y="0px"
	 viewBox="201.1 274.2 216 251.7" enable-background="new 201.1 274.2 216 251.7" xml:space="preserve">
<g>
	<g>
		<path fill="#EB3B95" d="M306.3,385.9l43.6,52.7l1.5-1.5c4.7-5,9.1-10,13.3-15c4.1-5,15-16.5,18.9-21.8l17.1,31.2
			c-2.9,4.1-6.8,9.1-11.5,14.7s-10.3,12.1-17.1,19.2l45.1,55.7h-45.7l-24.2-29.8c-22.1,23-45.4,34.5-69.2,34.5
			c-21.5,0-39.8-6.8-54.8-20.6c-14.7-13.8-22.1-30.9-22.1-51.3c0-24.2,11.5-44.5,35.1-60.4l15.9-10.9c0.3,0,0.6-0.3,1.2-0.9
			c0.6-0.3,1.2-0.9,2.1-1.8c-15.9-17.1-24.2-33.9-24.2-50.4s5.3-29.8,15.9-40.1c10.9-10.3,25-15.3,42.4-15.3c16.8,0,30.4,5,41.3,15
			s16.5,22.7,16.5,37.7c0,10.6-2.9,20-8.8,28.6C332.2,363.8,321.6,374.1,306.3,385.9z M277.1,406.5l-2.1,1.5
			c-15,10.3-25.3,18.9-30.6,25s-8,13-8,20c0,10,4.1,19.4,12.1,27.7c8.3,8,17.7,12.1,27.7,12.1c14.1,0,30.4-9.1,48.9-27.7
			L277.1,406.5z M285.1,360.2l2.9-2.4c5-3.8,9.4-7.4,12.7-10c3.2-2.9,5.9-5.3,7.4-7.4c3.2-3.8,4.7-8.5,4.7-14.4
			c0-6.5-2.1-11.5-6.5-15.6s-10-5.9-17.4-5.9c-6.5,0-12.1,2.1-16.8,6.2c-4.4,3.8-6.8,8.8-6.8,15c0,7.1,2.9,14.1,8.5,21.2l9.1,10.9
			C283.3,358.2,283.9,359,285.1,360.2z"/>
	</g>
</g>
</svg>
